<svg xmlns="http://www.w3.org/2000/svg" width="760" height="460" viewBox="0 0 760 460" font-family="sans-serif"><rect x="0" y="0" width="760" height="460" fill="#ffffff"/><text x="380.0" y="24" text-anchor="middle" font-size="16" fill="#111">..1.5 全图鉴集齐概率(平铺策略,总抽数口径)</text><line x1="64" y1="408.0" x2="736" y2="408.0" stroke="#e0e0e0"/><line x1="64.0" y1="46" x2="64.0" y2="408" stroke="#e0e0e0"/><line x1="64" y1="335.6" x2="736" y2="335.6" stroke="#e0e0e0"/><line x1="198.4" y1="46" x2="198.4" y2="408" stroke="#e0e0e0"/><line x1="64" y1="263.2" x2="736" y2="263.2" stroke="#e0e0e0"/><line x1="332.8" y1="46" x2="332.8" y2="408" stroke="#e0e0e0"/><line x1="64" y1="190.8" x2="736" y2="190.8" stroke="#e0e0e0"/><line x1="467.2" y1="46" x2="467.2" y2="408" stroke="#e0e0e0"/><line x1="64" y1="118.4" x2="736" y2="118.4" stroke="#e0e0e0"/><line x1="601.6" y1="46" x2="601.6" y2="408" stroke="#e0e0e0"/><line x1="64" y1="46.0" x2="736" y2="46.0" stroke="#e0e0e0"/><line x1="736.0" y1="46" x2="736.0" y2="408" stroke="#e0e0e0"/><polyline points="64.0,408.0 64.5,408.0 65.0,408.0 65.5,408.0 66.0,408.0 66.4,408.0 66.9,408.0 67.4,408.0 67.9,408.0 68.4,408.0 68.9,408.0 69.4,408.0 69.9,408.0 70.4,408.0 70.8,408.0 71.3,408.0 71.8,408.0 72.3,408.0 72.8,408.0 73.3,408.0 73.8,408.0 74.3,408.0 74.8,408.0 75.2,408.0 75.7,408.0 76.2,408.0 76.7,408.0 77.2,408.0 77.7,408.0 78.2,408.0 78.7,408.0 79.2,408.0 79.7,408.0 80.1,408.0 80.6,408.0 81.1,408.0 81.6,408.0 82.1,408.0 82.6,408.0 83.1,408.0 83.6,408.0 84.1,408.0 84.5,408.0 85.0,408.0 85.5,408.0 86.0,408.0 86.5,408.0 87.0,408.0 87.5,408.0 88.0,408.0 88.5,408.0 88.9,408.0 89.4,408.0 89.9,408.0 90.4,408.0 90.9,408.0 91.4,408.0 91.9,408.0 92.4,408.0 92.9,408.0 93.3,408.0 93.8,408.0 94.3,408.0 94.8,408.0 95.3,408.0 95.8,408.0 96.3,408.0 96.8,408.0 97.3,408.0 97.7,408.0 98.2,408.0 98.7,408.0 99.2,408.0 99.7,408.0 100.2,408.0 100.7,408.0 101.2,408.0 101.7,408.0 102.1,408.0 102.6,408.0 103.1,408.0 103.6,408.0 104.1,408.0 104.6,408.0 105.1,408.0 105.6,408.0 106.1,408.0 106.6,408.0 107.0,408.0 107.5,408.0 108.0,408.0 108.5,408.0 109.0,408.0 109.5,408.0 110.0,408.0 110.5,408.0 111.0,408.0 111.4,408.0 111.9,408.0 112.4,408.0 112.9,408.0 113.4,408.0 113.9,408.0 114.4,408.0 114.9,408.0 115.4,408.0 115.8,408.0 116.3,408.0 116.8,408.0 117.3,408.0 117.8,408.0 118.3,408.0 118.8,408.0 119.3,408.0 119.8,408.0 120.2,408.0 120.7,408.0 121.2,408.0 121.7,408.0 122.2,408.0 122.7,408.0 123.2,408.0 123.7,408.0 124.2,408.0 124.6,408.0 125.1,408.0 125.6,408.0 126.1,408.0 126.6,408.0 127.1,408.0 127.6,408.0 128.1,408.0 128.6,408.0 129.0,408.0 129.5,408.0 130.0,408.0 130.5,408.0 131.0,408.0 131.5,408.0 132.0,408.0 132.5,408.0 133.0,408.0 133.4,408.0 133.9,408.0 134.4,408.0 134.9,408.0 135.4,408.0 135.9,408.0 136.4,408.0 136.9,408.0 137.4,408.0 137.9,408.0 138.3,408.0 138.8,408.0 139.3,408.0 139.8,408.0 140.3,408.0 140.8,408.0 141.3,408.0 141.8,408.0 142.3,408.0 142.7,408.0 143.2,408.0 143.7,408.0 144.2,408.0 144.7,408.0 145.2,408.0 145.7,408.0 146.2,408.0 146.7,408.0 147.1,408.0 147.6,408.0 148.1,408.0 148.6,408.0 149.1,408.0 149.6,408.0 150.1,408.0 150.6,408.0 151.1,408.0 151.5,408.0 152.0,408.0 152.5,408.0 153.0,408.0 153.5,408.0 154.0,408.0 154.5,408.0 155.0,408.0 155.5,408.0 155.9,408.0 156.4,408.0 156.9,408.0 157.4,408.0 157.9,408.0 158.4,408.0 158.9,408.0 159.4,408.0 159.9,408.0 160.3,408.0 160.8,408.0 161.3,408.0 161.8,408.0 162.3,408.0 162.8,408.0 163.3,408.0 163.8,408.0 164.3,408.0 164.8,408.0 165.2,408.0 165.7,408.0 166.2,408.0 166.7,408.0 167.2,408.0 167.7,408.0 168.2,408.0 168.7,408.0 169.2,408.0 169.6,408.0 170.1,408.0 170.6,408.0 171.1,408.0 171.6,408.0 172.1,408.0 172.6,408.0 173.1,408.0 173.6,408.0 174.0,408.0 174.5,408.0 175.0,408.0 175.5,408.0 176.0,408.0 176.5,408.0 177.0,408.0 177.5,408.0 178.0,408.0 178.4,408.0 178.9,408.0 179.4,408.0 179.9,408.0 180.4,408.0 180.9,408.0 181.4,408.0 181.9,408.0 182.4,408.0 182.8,408.0 183.3,408.0 183.8,408.0 184.3,408.0 184.8,408.0 185.3,408.0 185.8,408.0 186.3,408.0 186.8,408.0 187.2,408.0 187.7,408.0 188.2,408.0 188.7,408.0 189.2,408.0 189.7,408.0 190.2,408.0 190.7,408.0 191.2,408.0 191.7,408.0 192.1,408.0 192.6,408.0 193.1,408.0 193.6,408.0 194.1,408.0 194.6,408.0 195.1,408.0 195.6,408.0 196.1,408.0 196.5,408.0 197.0,408.0 197.5,408.0 198.0,408.0 198.5,408.0 199.0,408.0 199.5,408.0 200.0,408.0 200.5,408.0 200.9,408.0 201.4,408.0 201.9,408.0 202.4,408.0 202.9,408.0 203.4,408.0 203.9,408.0 204.4,408.0 204.9,408.0 205.3,408.0 205.8,408.0 206.3,408.0 206.8,408.0 207.3,408.0 207.8,408.0 208.3,408.0 208.8,408.0 209.3,408.0 209.7,408.0 210.2,408.0 210.7,408.0 211.2,408.0 211.7,408.0 212.2,408.0 212.7,408.0 213.2,408.0 213.7,408.0 214.1,408.0 214.6,408.0 215.1,408.0 215.6,408.0 216.1,408.0 216.6,408.0 217.1,408.0 217.6,408.0 218.1,408.0 218.6,408.0 219.0,408.0 219.5,408.0 220.0,408.0 220.5,408.0 221.0,408.0 221.5,408.0 222.0,408.0 222.5,408.0 223.0,408.0 223.4,408.0 223.9,408.0 224.4,408.0 224.9,408.0 225.4,408.0 225.9,408.0 226.4,408.0 226.9,408.0 227.4,408.0 227.8,408.0 228.3,408.0 228.8,408.0 229.3,408.0 229.8,408.0 230.3,408.0 230.8,408.0 231.3,408.0 231.8,408.0 232.2,408.0 232.7,408.0 233.2,408.0 233.7,408.0 234.2,408.0 234.7,408.0 235.2,408.0 235.7,408.0 236.2,408.0 236.6,408.0 237.1,408.0 237.6,408.0 238.1,408.0 238.6,408.0 239.1,408.0 239.6,408.0 240.1,408.0 240.6,408.0 241.0,408.0 241.5,408.0 242.0,408.0 242.5,408.0 243.0,408.0 243.5,408.0 244.0,408.0 244.5,408.0 245.0,408.0 245.4,408.0 245.9,408.0 246.4,408.0 246.9,408.0 247.4,408.0 247.9,408.0 248.4,408.0 248.9,408.0 249.4,408.0 249.9,408.0 250.3,408.0 250.8,408.0 251.3,408.0 251.8,408.0 252.3,408.0 252.8,408.0 253.3,408.0 253.8,408.0 254.3,408.0 254.7,408.0 255.2,408.0 255.7,408.0 256.2,408.0 256.7,408.0 257.2,408.0 257.7,408.0 258.2,408.0 258.7,408.0 259.1,408.0 259.6,408.0 260.1,408.0 260.6,408.0 261.1,408.0 261.6,408.0 262.1,408.0 262.6,408.0 263.1,408.0 263.5,408.0 264.0,408.0 264.5,408.0 265.0,408.0 265.5,408.0 266.0,408.0 266.5,408.0 267.0,408.0 267.5,408.0 267.9,408.0 268.4,408.0 268.9,408.0 269.4,408.0 269.9,408.0 270.4,408.0 270.9,408.0 271.4,408.0 271.9,408.0 272.3,408.0 272.8,408.0 273.3,408.0 273.8,408.0 274.3,408.0 274.8,408.0 275.3,408.0 275.8,408.0 276.3,408.0 276.8,408.0 277.2,408.0 277.7,408.0 278.2,408.0 278.7,408.0 279.2,408.0 279.7,408.0 280.2,408.0 280.7,408.0 281.2,408.0 281.6,408.0 282.1,408.0 282.6,408.0 283.1,408.0 283.6,408.0 284.1,408.0 284.6,408.0 285.1,408.0 285.6,408.0 286.0,408.0 286.5,408.0 287.0,408.0 287.5,407.9 288.0,407.9 288.5,407.9 289.0,407.9 289.5,407.9 290.0,407.9 290.4,407.9 290.9,407.9 291.4,407.9 291.9,407.9 292.4,407.9 292.9,407.9 293.4,407.9 293.9,407.9 294.4,407.9 294.8,407.9 295.3,407.9 295.8,407.9 296.3,407.9 296.8,407.9 297.3,407.9 297.8,407.9 298.3,407.9 298.8,407.9 299.2,407.9 299.7,407.9 300.2,407.9 300.7,407.9 301.2,407.9 301.7,407.9 302.2,407.9 302.7,407.9 303.2,407.9 303.7,407.9 304.1,407.9 304.6,407.9 305.1,407.9 305.6,407.9 306.1,407.9 306.6,407.9 307.1,407.9 307.6,407.9 308.1,407.9 308.5,407.9 309.0,407.9 309.5,407.9 310.0,407.9 310.5,407.9 311.0,407.9 311.5,407.9 312.0,407.9 312.5,407.9 312.9,407.9 313.4,407.9 313.9,407.9 314.4,407.9 314.9,407.9 315.4,407.8 315.9,407.8 316.4,407.8 316.9,407.8 317.3,407.8 317.8,407.8 318.3,407.8 318.8,407.8 319.3,407.8 319.8,407.8 320.3,407.8 320.8,407.8 321.3,407.8 321.7,407.8 322.2,407.8 322.7,407.8 323.2,407.8 323.7,407.8 324.2,407.8 324.7,407.8 325.2,407.8 325.7,407.7 326.1,407.7 326.6,407.7 327.1,407.7 327.6,407.6 328.1,407.6 328.6,407.6 329.1,407.6 329.6,407.6 330.1,407.6 330.6,407.6 331.0,407.6 331.5,407.6 332.0,407.6 332.5,407.6 333.0,407.6 333.5,407.6 334.0,407.6 334.5,407.6 335.0,407.6 335.4,407.6 335.9,407.6 336.4,407.6 336.9,407.6 337.4,407.6 337.9,407.6 338.4,407.6 338.9,407.6 339.4,407.6 339.8,407.6 340.3,407.6 340.8,407.6 341.3,407.6 341.8,407.6 342.3,407.6 342.8,407.6 343.3,407.6 343.8,407.6 344.2,407.5 344.7,407.5 345.2,407.5 345.7,407.5 346.2,407.5 346.7,407.5 347.2,407.5 347.7,407.5 348.2,407.4 348.6,407.3 349.1,407.3 349.6,407.3 350.1,407.2 350.6,407.2 351.1,407.2 351.6,407.1 352.1,407.1 352.6,407.1 353.0,407.1 353.5,407.1 354.0,407.1 354.5,407.1 355.0,407.0 355.5,407.0 356.0,407.0 356.5,407.0 357.0,406.9 357.4,406.9 357.9,406.9 358.4,406.8 358.9,406.8 359.4,406.8 359.9,406.8 360.4,406.8 360.9,406.8 361.4,406.8 361.9,406.8 362.3,406.8 362.8,406.8 363.3,406.8 363.8,406.7 364.3,406.6 364.8,406.6 365.3,406.6 365.8,406.6 366.3,406.5 366.7,406.5 367.2,406.5 367.7,406.5 368.2,406.5 368.7,406.5 369.2,406.5 369.7,406.5 370.2,406.5 370.7,406.3 371.1,406.3 371.6,406.3 372.1,406.3 372.6,406.3 373.1,406.3 373.6,406.2 374.1,406.1 374.6,406.1 375.1,406.1 375.5,406.1 376.0,406.0 376.5,406.0 377.0,405.9 377.5,405.8 378.0,405.8 378.5,405.6 379.0,405.6 379.5,405.6 379.9,405.6 380.4,405.5 380.9,405.4 381.4,405.4 381.9,405.4 382.4,405.3 382.9,405.2 383.4,405.2 383.9,405.1 384.3,405.0 384.8,404.9 385.3,404.9 385.8,404.7 386.3,404.7 386.8,404.7 387.3,404.7 387.8,404.4 388.3,404.3 388.8,404.0 389.2,404.0 389.7,403.9 390.2,403.9 390.7,403.9 391.2,403.7 391.7,403.6 392.2,403.2 392.7,403.1 393.2,403.1 393.6,403.1 394.1,403.0 394.6,403.0 395.1,402.8 395.6,402.8 396.1,402.6 396.6,402.5 397.1,402.4 397.6,402.2 398.0,402.2 398.5,402.1 399.0,402.1 399.5,402.0 400.0,401.8 400.5,401.8 401.0,401.7 401.5,401.6 402.0,401.6 402.4,401.6 402.9,401.4 403.4,401.3 403.9,401.2 404.4,401.1 404.9,401.0 405.4,401.0 405.9,400.9 406.4,400.8 406.8,400.6 407.3,400.5 407.8,400.4 408.3,400.3 408.8,400.1 409.3,399.7 409.8,399.5 410.3,399.2 410.8,399.0 411.2,398.9 411.7,398.8 412.2,398.7 412.7,398.6 413.2,398.5 413.7,398.4 414.2,398.4 414.7,398.1 415.2,397.9 415.7,397.5 416.1,397.5 416.6,397.3 417.1,397.2 417.6,397.0 418.1,396.6 418.6,396.5 419.1,396.5 419.6,396.3 420.1,396.1 420.5,396.0 421.0,395.8 421.5,395.6 422.0,395.6 422.5,395.4 423.0,395.3 423.5,395.2 424.0,394.9 424.5,394.8 424.9,394.5 425.4,394.3 425.9,394.2 426.4,393.8 426.9,393.7 427.4,393.3 427.9,392.9 428.4,392.7 428.9,392.4 429.3,391.9 429.8,391.9 430.3,391.4 430.8,391.3 431.3,391.1 431.8,390.7 432.3,390.4 432.8,390.2 433.3,390.1 433.7,389.9 434.2,389.5 434.7,389.5 435.2,389.5 435.7,389.4 436.2,389.0 436.7,388.7 437.2,388.4 437.7,388.0 438.1,387.7 438.6,387.4 439.1,387.0 439.6,385.9 440.1,385.6 440.6,385.4 441.1,385.2 441.6,384.5 442.1,384.2 442.6,384.0 443.0,383.8 443.5,383.5 444.0,383.2 444.5,383.0 445.0,382.9 445.5,382.2 446.0,381.9 446.5,381.4 447.0,380.9 447.4,380.7 447.9,380.3 448.4,380.1 448.9,379.4 449.4,379.2 449.9,378.8 450.4,378.1 450.9,377.6 451.4,377.2 451.8,376.7 452.3,376.1 452.8,375.9 453.3,375.5 453.8,375.1 454.3,374.7 454.8,374.3 455.3,373.7 455.8,373.1 456.2,372.7 456.7,372.2 457.2,371.9 457.7,371.8 458.2,371.4 458.7,371.2 459.2,370.7 459.7,369.9 460.2,369.2 460.6,368.8 461.1,368.3 461.6,367.5 462.1,366.9 462.6,366.4 463.1,365.8 463.6,365.3 464.1,364.7 464.6,364.0 465.0,363.1 465.5,362.8 466.0,362.3 466.5,361.9 467.0,361.4 467.5,360.9 468.0,360.6 468.5,359.8 469.0,359.2 469.4,358.8 469.9,358.4 470.4,357.8 470.9,357.3 471.4,357.0 471.9,356.3 472.4,355.6 472.9,354.9 473.4,354.4 473.9,353.8 474.3,353.3 474.8,352.8 475.3,351.7 475.8,351.3 476.3,350.4 476.8,349.4 477.3,348.7 477.8,348.2 478.3,347.8 478.7,347.3 479.2,346.5 479.7,345.6 480.2,344.5 480.7,343.8 481.2,343.1 481.7,342.6 482.2,342.3 482.7,341.0 483.1,340.5 483.6,339.7 484.1,339.4 484.6,339.0 485.1,338.4 485.6,337.9 486.1,337.6 486.6,336.9 487.1,336.3 487.5,335.6 488.0,334.9 488.5,334.2 489.0,333.3 489.5,332.5 490.0,331.6 490.5,330.6 491.0,329.7 491.5,329.1 491.9,328.2 492.4,327.4 492.9,326.5 493.4,325.7 493.9,324.8 494.4,323.9 494.9,323.0 495.4,322.2 495.9,321.3 496.3,320.4 496.8,319.2 497.3,318.4 497.8,317.2 498.3,316.1 498.8,315.2 499.3,314.4 499.8,312.9 500.3,311.9 500.8,310.6 501.2,309.8 501.7,308.9 502.2,308.2 502.7,307.3 503.2,306.1 503.7,305.0 504.2,304.3 504.7,303.2 505.2,301.7 505.6,301.1 506.1,300.1 506.6,299.3 507.1,298.3 507.6,296.5 508.1,295.4 508.6,294.2 509.1,292.8 509.6,291.7 510.0,290.8 510.5,290.3 511.0,289.0 511.5,287.8 512.0,286.1 512.5,285.1 513.0,284.5 513.5,283.9 514.0,282.9 514.4,282.1 514.9,280.9 515.4,280.1 515.9,278.6 516.4,277.4 516.9,276.1 517.4,275.3 517.9,274.4 518.4,273.1 518.8,272.0 519.3,271.0 519.8,269.8 520.3,269.4 520.8,268.5 521.3,267.1 521.8,265.9 522.3,264.9 522.8,263.9 523.2,263.0 523.7,262.5 524.2,261.1 524.7,259.9 525.2,258.6 525.7,257.0 526.2,255.4 526.7,254.1 527.2,253.3 527.7,252.3 528.1,250.9 528.6,250.0 529.1,248.9 529.6,248.4 530.1,247.3 530.6,246.0 531.1,245.2 531.6,243.8 532.1,242.9 532.5,242.1 533.0,240.7 533.5,239.9 534.0,238.7 534.5,236.8 535.0,236.0 535.5,235.2 536.0,234.2 536.5,233.5 536.9,232.4 537.4,231.6 537.9,230.5 538.4,229.2 538.9,228.3 539.4,226.9 539.9,225.9 540.4,224.9 540.9,224.2 541.3,223.5 541.8,222.1 542.3,220.9 542.8,220.0 543.3,218.7 543.8,217.2 544.3,215.6 544.8,214.6 545.3,213.6 545.7,212.6 546.2,211.1 546.7,210.1 547.2,208.7 547.7,207.9 548.2,206.9 548.7,206.1 549.2,205.4 549.7,204.6 550.1,203.5 550.6,202.1 551.1,200.8 551.6,199.1 552.1,197.9 552.6,196.8 553.1,195.5 553.6,194.3 554.1,193.1 554.6,191.9 555.0,190.7 555.5,189.8 556.0,189.0 556.5,188.0 557.0,187.0 557.5,186.0 558.0,185.4 558.5,184.3 559.0,182.7 559.4,181.7 559.9,180.4 560.4,179.3 560.9,178.0 561.4,176.5 561.9,175.5 562.4,173.9 562.9,172.7 563.4,171.8 563.8,170.9 564.3,170.3 564.8,169.2 565.3,167.9 565.8,166.9 566.3,165.5 566.8,164.5 567.3,163.5 567.8,162.3 568.2,161.4 568.7,160.6 569.2,159.7 569.7,158.8 570.2,158.0 570.7,157.4 571.2,156.3 571.7,155.4 572.2,154.5 572.6,153.2 573.1,152.1 573.6,151.5 574.1,150.7 574.6,149.6 575.1,149.0 575.6,148.1 576.1,147.1 576.6,146.3 577.0,145.3 577.5,144.4 578.0,144.0 578.5,143.6 579.0,142.1 579.5,141.3 580.0,140.7 580.5,139.8 581.0,139.0 581.4,137.9 581.9,136.7 582.4,136.3 582.9,135.7 583.4,135.2 583.9,134.4 584.4,133.2 584.9,132.4 585.4,131.4 585.9,130.6 586.3,130.2 586.8,129.0 587.3,128.2 587.8,127.4 588.3,126.7 588.8,126.1 589.3,125.1 589.8,124.5 590.3,123.8 590.7,123.2 591.2,122.3 591.7,120.9 592.2,120.4 592.7,119.6 593.2,118.9 593.7,118.0 594.2,117.4 594.7,116.4 595.1,115.4 595.6,114.9 596.1,114.3 596.6,113.5 597.1,112.8 597.6,112.0 598.1,110.8 598.6,110.1 599.1,109.3 599.5,108.8 600.0,108.0 600.5,107.5 601.0,106.7 601.5,106.1 602.0,105.3 602.5,104.8 603.0,104.2 603.5,103.1 603.9,102.5 604.4,102.1 604.9,101.3 605.4,100.2 605.9,99.1 606.4,98.1 606.9,97.5 607.4,96.6 607.9,96.2 608.3,95.2 608.8,94.4 609.3,94.0 609.8,93.3 610.3,92.5 610.8,91.8 611.3,90.8 611.8,89.9 612.3,89.6 612.8,88.9 613.2,88.4 613.7,87.6 614.2,86.7 614.7,86.3 615.2,85.4 615.7,84.7 616.2,84.1 616.7,83.5 617.2,83.1 617.6,82.3 618.1,81.8 618.6,81.3 619.1,80.8 619.6,80.3 620.1,80.1 620.6,79.7 621.1,79.2 621.6,78.9 622.0,78.4 622.5,77.6 623.0,77.3 623.5,76.8 624.0,76.6 624.5,75.8 625.0,75.3 625.5,75.0 626.0,74.5 626.4,74.2 626.9,73.8 627.4,73.4 627.9,73.1 628.4,72.6 628.9,72.1 629.4,71.8 629.9,71.3 630.4,71.1 630.8,70.6 631.3,70.3 631.8,69.8 632.3,69.4 632.8,69.2 633.3,68.8 633.8,68.7 634.3,68.2 634.8,67.9 635.2,67.5 635.7,67.0 636.2,66.9 636.7,66.5 637.2,66.1 637.7,65.9 638.2,65.7 638.7,64.8 639.2,64.5 639.7,64.2 640.1,64.0 640.6,63.8 641.1,63.5 641.6,63.4 642.1,62.7 642.6,62.4 643.1,62.1 643.6,61.9 644.1,61.7 644.5,61.5 645.0,61.3 645.5,61.2 646.0,60.7 646.5,60.6 647.0,60.2 647.5,60.0 648.0,59.5 648.5,59.0 648.9,58.9 649.4,58.7 649.9,58.5 650.4,58.5 650.9,58.4 651.4,58.2 651.9,57.7 652.4,57.2 652.9,57.0 653.3,56.7 653.8,56.6 654.3,56.6 654.8,56.6 655.3,56.3 655.8,56.2 656.3,56.1 656.8,55.7 657.3,55.5 657.7,55.2 658.2,55.0 658.7,54.5 659.2,54.1 659.7,54.0 660.2,53.7 660.7,53.5 661.2,53.5 661.7,53.2 662.1,53.2 662.6,53.0 663.1,52.8 663.6,52.7 664.1,52.4 664.6,52.3 665.1,52.3 665.6,52.3 666.1,52.2 666.6,52.1 667.0,51.9 667.5,51.9 668.0,51.7 668.5,51.5 669.0,51.3 669.5,51.2 670.0,51.1 670.5,51.0 671.0,50.9 671.4,50.7 671.9,50.6 672.4,50.5 672.9,50.3 673.4,50.2 673.9,50.1 674.4,50.0 674.9,50.0 675.4,50.0 675.8,49.9 676.3,49.8 676.8,49.5 677.3,49.3 677.8,49.3 678.3,49.3 678.8,49.3 679.3,49.2 679.8,49.1 680.2,49.1 680.7,49.0 681.2,49.0 681.7,48.8 682.2,48.8 682.7,48.6 683.2,48.3 683.7,48.2 684.2,48.1 684.6,48.1 685.1,48.0 685.6,47.8 686.1,47.7 686.6,47.7 687.1,47.7 687.6,47.7 688.1,47.7 688.6,47.5 689.0,47.4 689.5,47.4 690.0,47.4 690.5,47.4 691.0,47.4 691.5,47.3 692.0,47.2 692.5,47.2 693.0,47.2 693.4,47.2 693.9,47.2 694.4,47.2 694.9,47.2 695.4,47.2 695.9,47.2 696.4,47.2 696.9,47.1 697.4,47.1 697.9,47.1 698.3,47.1 698.8,47.1 699.3,47.1 699.8,47.1 700.3,47.0 700.8,47.0 701.3,47.0 701.8,47.0 702.3,47.0 702.7,47.0 703.2,47.0 703.7,47.0 704.2,47.0 704.7,47.0 705.2,46.9 705.7,46.9 706.2,46.9 706.7,46.9 707.1,46.9 707.6,46.9 708.1,46.9 708.6,46.8 709.1,46.7 709.6,46.7 710.1,46.7 710.6,46.7 711.1,46.7 711.5,46.7 712.0,46.7 712.5,46.7 713.0,46.7 713.5,46.5 714.0,46.5 714.5,46.5 715.0,46.5 715.5,46.5 715.9,46.5 716.4,46.4 716.9,46.4 717.4,46.4 717.9,46.4 718.4,46.4 718.9,46.4 719.4,46.4 719.9,46.4 720.3,46.3 720.8,46.3 721.3,46.3 721.8,46.3 722.3,46.3 722.8,46.3 723.3,46.3 723.8,46.3 724.3,46.2 724.8,46.1 725.2,46.1 725.7,46.1 726.2,46.1 726.7,46.1 727.2,46.1 727.7,46.1 728.2,46.1 728.7,46.1 729.2,46.1 729.6,46.1 730.1,46.1 730.6,46.1 731.1,46.1 731.6,46.1 732.1,46.1 732.6,46.1 733.1,46.1 733.6,46.1 734.0,46.1 734.5,46.1 735.0,46.0" fill="none" stroke="#1565c0" stroke-width="2"/><line x1="539.3" y1="46" x2="539.3" y2="408" stroke="#1565c0" stroke-width="1.5" stroke-dasharray="5,4"/><circle cx="539.3" cy="227.0" r="3.5" fill="#1565c0"/><text x="532.3" y="219.0" text-anchor="end" font-size="12" font-weight="bold" fill="#1565c0">50%</text><line x1="533.5" y1="46" x2="533.5" y2="408" stroke="#2e7d32" stroke-width="1.5"/><circle cx="533.5" cy="239.9" r="3.5" fill="#2e7d32"/><text x="526.5" y="231.9" text-anchor="end" font-size="12" font-weight="bold" fill="#2e7d32">46%</text><line x1="595.6" y1="46" x2="595.6" y2="408" stroke="#6a1b9a" stroke-width="1.5"/><circle cx="595.6" cy="114.9" r="3.5" fill="#6a1b9a"/><text x="588.6" y="106.9" text-anchor="end" font-size="12" font-weight="bold" fill="#6a1b9a">81%</text><line x1="76" y1="56" x2="94" y2="56" stroke="#1565c0" stroke-width="2"/><text x="76" y="78" font-size="12" fill="#222">模拟</text><text x="96" y="96" font-size="12" fill="#1565c0">E=972(期望)</text><text x="96" y="114" font-size="12" fill="#2e7d32">零氪全勤 960(-12(-1%))</text><text x="96" y="132" font-size="12" fill="#6a1b9a">大小月卡 1087(+115(+12%))</text><text x="64.0" y="426" text-anchor="middle" font-size="12" fill="#444">0</text><text x="56" y="412.0" text-anchor="end" font-size="12" fill="#444">0%</text><text x="198.4" y="426" text-anchor="middle" font-size="12" fill="#444">275</text><text x="56" y="339.6" text-anchor="end" font-size="12" fill="#444">20%</text><text x="332.8" y="426" text-anchor="middle" font-size="12" fill="#444">550</text><text x="56" y="267.2" text-anchor="end" font-size="12" fill="#444">40%</text><text x="467.2" y="426" text-anchor="middle" font-size="12" fill="#444">824</text><text x="56" y="194.8" text-anchor="end" font-size="12" fill="#444">60%</text><text x="601.6" y="426" text-anchor="middle" font-size="12" fill="#444">1099</text><text x="56" y="122.4" text-anchor="end" font-size="12" fill="#444">80%</text><text x="736.0" y="426" text-anchor="middle" font-size="12" fill="#444">1374</text><text x="56" y="50.0" text-anchor="end" font-size="12" fill="#444">100%</text><text x="400.0" y="448" text-anchor="middle" font-size="13" fill="#444">总寻访次数(含游戏内免费券)</text><text x="18" y="227.0" text-anchor="middle" font-size="13" fill="#444" transform="rotate(-90 18 227.0)">集齐概率</text></svg>